<svg id="Layer_1" data-name="Layer 1" xmlns="http://www.w3.org/2000/svg" viewBox="0 0 361.8 119.07"><defs><style>.cls-1{fill:none;stroke:#000;stroke-miterlimit:10;}</style></defs><title>nameScript</title><path class="cls-1" d="M288.68,403.07V461.9H275.74l0-32.4-5.15,32.4H261.4L256,430.41l0,31.49H243V403.07h19.15c.57,3.31,1.15,7.5,1.76,12.32l2.1,15,3.4-27.34Z" transform="translate(-206.67 -402.01)"/><path class="cls-1" d="M324.12,430v11.86a51.9,51.9,0,0,1-.63,9.58,13.65,13.65,0,0,1-2.71,5.69,12.24,12.24,0,0,1-5.33,3.9,20.59,20.59,0,0,1-7.47,1.26,25.75,25.75,0,0,1-8-1.08,10.82,10.82,0,0,1-5.08-3.25,13,13,0,0,1-2.58-5.25,41,41,0,0,1-.77-9.25V431.1A31.42,31.42,0,0,1,293,420.56a12,12,0,0,1,5.06-6.09,17.3,17.3,0,0,1,9.35-2.3,20.67,20.67,0,0,1,8.21,1.48,13.2,13.2,0,0,1,5.29,3.85,13.79,13.79,0,0,1,2.55,4.89A31.5,31.5,0,0,1,324.12,430Zm-14.2-3.65a16.68,16.68,0,0,0-.39-4.69,1.59,1.59,0,0,0-1.65-1,1.66,1.66,0,0,0-1.69,1,15.34,15.34,0,0,0-.42,4.69v21.86a14.67,14.67,0,0,0,.42,4.47,1.89,1.89,0,0,0,3.32.09,12.82,12.82,0,0,0,.4-4.09Z" transform="translate(-206.67 -402.01)"/><path class="cls-1" d="M343.73,412.29v32.1a14.49,14.49,0,0,1,4.52-3,13.5,13.5,0,0,1,5.2-1,11.71,11.71,0,0,1,7.25,2.25,9,9,0,0,1,3.65,5.19,57.29,57.29,0,0,1,.66,10.73v38.12H348.78V467.6a25.13,25.13,0,0,0-.46-6.21,2,2,0,0,0-2.07-1.37,2,2,0,0,0-2,1.42,19.43,19.43,0,0,0-.52,5.62v29.61H327.51V412.29Z" transform="translate(-206.67 -402.01)"/><path class="cls-1" d="M376.63,431h-8.25V427.8a23.7,23.7,0,0,1,1.25-8.67,11.84,11.84,0,0,1,5-5.38,18.31,18.31,0,0,1,9.77-2.33q7.21,0,10.86,2.65a10.32,10.32,0,0,1,4.39,6.49q.74,3.85.74,15.85v24.3H386.59a1.46,1.46,0,0,0-2.41-1.12,8,8,0,0,1-1,.7,9,9,0,0,1-4.9,1.3,11.69,11.69,0,0,1-6.84-2.17q-3.11-2.17-3.11-9.51v-4q0-5.44,1.65-7.41t8.19-4.6q7-2.85,7.49-3.83a10.53,10.53,0,0,0,.49-4,14,14,0,0,0-.54-4.94,1.87,1.87,0,0,0-1.81-1.15q-1.44,0-1.79,1a20.37,20.37,0,0,0-.35,5h0A5.07,5.07,0,0,1,376.63,431Zm9.57,11.69c0-2.26-3.25-2.89-3.94-.74v0a17.84,17.84,0,0,0-.54,5,15.19,15.19,0,0,0,.47,4.85,1.85,1.85,0,0,0,1.88,1.09,1.72,1.72,0,0,0,1.74-.86,14.36,14.36,0,0,0,.4-4.51Z" transform="translate(-206.67 -402.01)"/><path class="cls-1" d="M419.16,413.16l-.25,4.61a11.68,11.68,0,0,1,3.94-4.11,9.92,9.92,0,0,1,5.2-1.37q5.7,0,9,5.48a13,13,0,0,1,4-4.11,9.41,9.41,0,0,1,5-1.37,9.55,9.55,0,0,1,6,1.82,8,8,0,0,1,3,4.47,39,39,0,0,1,.67,8.59v34.41H442v-28.3a41.27,41.27,0,0,0-.4-7.68,1.8,1.8,0,0,0-1.88-1.48,1.87,1.87,0,0,0-2,1.46q-.44,1.46-.44,7.7v28.3H423.52v-27.5a58.47,58.47,0,0,0-.33-8.54,1.7,1.7,0,0,0-1.85-1.42,2.09,2.09,0,0,0-1.62.75,3,3,0,0,0-.74,1.82q-.07,1.08-.07,4.58v30.31H405.13V413.16Z" transform="translate(-206.67 -402.01)"/><path class="cls-1" d="M492.81,438.23H474.43V448.7a12,12,0,0,0,.46,4.23,1.76,1.76,0,0,0,1.76.95,2.12,2.12,0,0,0,2.16-1.26,14.26,14.26,0,0,0,.54-4.87v-6.39h13.46v3.58a33.21,33.21,0,0,1-.54,6.9,14.25,14.25,0,0,1-2.55,5.15,12.48,12.48,0,0,1-5.08,4.1,19,19,0,0,1-7.72,1.37,21.69,21.69,0,0,1-7.95-1.35,12.7,12.7,0,0,1-5.36-3.7,13.55,13.55,0,0,1-2.65-5.18,34.67,34.67,0,0,1-.74-8.23V429.88a24.85,24.85,0,0,1,1.65-10,11.57,11.57,0,0,1,5.41-5.62,18.51,18.51,0,0,1,8.65-2,18.77,18.77,0,0,1,9.86,2.35,12.79,12.79,0,0,1,5.45,6.24q1.56,3.89,1.56,10.93Zm-14.24-7.88v-3.54a18.49,18.49,0,0,0-.39-4.85,1.53,1.53,0,0,0-1.58-1.09q-1.48,0-1.83.93a20.09,20.09,0,0,0-.35,5v3.54Z" transform="translate(-206.67 -402.01)"/><path class="cls-1" d="M529.76,402.51v59.08h-14.2v-3.51a14.72,14.72,0,0,1-4.29,3.29,10.63,10.63,0,0,1-4.71,1.1,9.33,9.33,0,0,1-5.73-1.81,8,8,0,0,1-3.11-4.18,30.84,30.84,0,0,1-.69-7.74V426.08a31.62,31.62,0,0,1,.69-7.92,7.82,7.82,0,0,1,3.15-4.1,9.79,9.79,0,0,1,5.87-1.77,11.67,11.67,0,0,1,4.83,1,12.08,12.08,0,0,1,4,3V402.51Zm-14.2,25.65a9.54,9.54,0,0,0-.44-3.58,2.15,2.15,0,0,0-3.45-.09,9.45,9.45,0,0,0-.44,3.67v17.7a11.31,11.31,0,0,0,.42,3.89,1.61,1.61,0,0,0,1.62.93,1.79,1.79,0,0,0,1.83-1,16.62,16.62,0,0,0,.46-5.09Z" transform="translate(-206.67 -402.01)"/><path class="cls-1" d="M278.13,471.18l8.05,48.76H271.06l-.79-6.91H265l-.89,6.91h-15.3L256,471.23c.21-1.56,1.55-2.73,3.28-3.93h15.92C276.57,468.5,277.89,469.64,278.13,471.18Zm-8.26,29.39c-.68-4-1.35-11.36-2-20a.3.3,0,0,0-.6,0c-1.29,9.86-2.11,17.18-2.46,20Z" transform="translate(-206.67 -402.01)"/><path class="cls-1" d="M323.9,484.42h-14v-2.91a16.08,16.08,0,0,0-.41-4.71q-.41-1-2-1a2.3,2.3,0,0,0-2,.91,4.63,4.63,0,0,0-.66,2.73,14.3,14.3,0,0,0,.33,3.62,5.7,5.7,0,0,0,2,2.53,42.87,42.87,0,0,0,6.8,4q6.86,3.48,9,6.55t2.14,8.94c0,4.37-.55,5.68-1.64,7.91a11,11,0,0,1-5.48,5.14,21.68,21.68,0,0,1-9.26,1.8A24.67,24.67,0,0,1,298.46,518a11.36,11.36,0,0,1-5.87-5.26c-1.07-2.21-1.6-3.57-1.6-8V502.1h14v3.4a18.52,18.52,0,0,0,.53,5.62,2,2,0,0,0,2.09,1.29,2.77,2.77,0,0,0,2.34-.87q.66-.87.66-3.66,0-3.84-.86-4.81t-9.16-5.75q-6.94-4-8.46-7.34a18.56,18.56,0,0,1-1.52-7.83q0-6.43,1.64-9.49a10.74,10.74,0,0,1,5.56-4.71,23.19,23.19,0,0,1,9.1-1.66,25,25,0,0,1,8.75,1.36,13.39,13.39,0,0,1,5.54,3.58,9.71,9.71,0,0,1,2.34,4.13,31.06,31.06,0,0,1,.41,5.95Z" transform="translate(-206.67 -402.01)"/><path class="cls-1" d="M393.07,467.88l-.54,13.38a.25.25,0,0,0,.49.09c1.84-5.1,4.59-7.19,10.74-7.63v18.67c-4.29,1.5-6.4,1.9-7.74,2.7a5,5,0,0,0-2.48,3.34,61.82,61.82,0,0,0-.46,9.86l-.67,12-14.27.26.67-52.43Z" transform="translate(-206.67 -402.01)"/><path class="cls-1" d="M427.19,491.39H413.87v-3.25a23.7,23.7,0,0,1,1.25-8.67,11.85,11.85,0,0,1,5-5.38,18.31,18.31,0,0,1,9.77-2.33q7.21,0,10.86,2.65a10.32,10.32,0,0,1,4.39,6.49q.74,3.85.74,15.85v22.32H432.08v-4.31a9.46,9.46,0,0,1-3.36,3.89,9,9,0,0,1-4.9,1.3,11.69,11.69,0,0,1-6.84-2.17c-2.07-1.45-3.11-2.63-3.11-7.52v-4q0-5.44,1.65-7.41t8.19-4.6q7-2.85,7.49-3.83a10.53,10.53,0,0,0,.49-4,14,14,0,0,0-.54-4.94,1.86,1.86,0,0,0-1.81-1.15q-1.44,0-1.79,1a20.37,20.37,0,0,0-.35,5Zm4.5,6.64q-3.41,2.59-4,4.34a17.86,17.86,0,0,0-.54,5c0,2.51.16,2.14.47,2.87a1.85,1.85,0,0,0,1.88,1.09,1.72,1.72,0,0,0,1.74-.86c.27-.57.4-.09.4-2.52Z" transform="translate(-206.67 -402.01)"/><path class="cls-1" d="M478.54,474.28v5.33c-7.57,0-9.29.22-9.82.66s-.79,1.68-.79,3.74v2.4h7.95v7.46a4.53,4.53,0,0,1-4.53,4.53h-3.51l.12,22.15h-11.5l-.12-22.15H451.2v-7.53a4.46,4.46,0,0,1,4.46-4.46h.66a99.13,99.13,0,0,1,.32-10,10.77,10.77,0,0,1,1.56-4.48,7.93,7.93,0,0,1,3.5-3,17.83,17.83,0,0,1,7-1h3.46A6.38,6.38,0,0,1,478.54,474.28Z" transform="translate(-206.67 -402.01)"/><path class="cls-1" d="M207.17,473.76V463.25q4.77,0,7.18-2.82t2.41-12.5a79.3,79.3,0,0,1,.55-11,11.52,11.52,0,0,1,2.65-6,11.87,11.87,0,0,1,5.43-3.48,32.12,32.12,0,0,1,9.41-1.07h2.32V436.9q-6.35,0-7.6,1.31t-1.34,5.12q-.26,10.51-.68,13.66a17.84,17.84,0,0,1-1.93,6,15.6,15.6,0,0,1-5.63,5.49,15.12,15.12,0,0,1,5.67,5.65q1.77,3.28,2.08,9.46l.66,12.74a4.17,4.17,0,0,0,1.88,2.78q1.49.94,6.83.94v10.51h-2.28q-7,0-10.81-1.6a10.25,10.25,0,0,1-5.52-5.23q-1.71-3.63-1.71-11.73,0-8.93-.61-11.43a11.19,11.19,0,0,0-2.36-4.57Q212,473.93,207.17,473.76Z" transform="translate(-206.67 -402.01)"/><path class="cls-1" d="M509,478v9.65H500V478Zm-.5,18v4.25a16,16,0,0,1-.79,5.48,8.06,8.06,0,0,1-2.74,3.64,10.62,10.62,0,0,1-4.41,2v-3.4a3.61,3.61,0,0,0,2-2.67h-2V496Z" transform="translate(-206.67 -402.01)"/><path class="cls-1" d="M568,473.76q-4.77,0-7.18,2.85T558.38,489a83.12,83.12,0,0,1-.53,11,11.38,11.38,0,0,1-2.63,6,11.87,11.87,0,0,1-5.43,3.48,32.12,32.12,0,0,1-9.41,1.07h-2.32V500.07q6.08,0,7.46-1.27t1.47-5.17a130.22,130.22,0,0,1,.81-14.38,17.22,17.22,0,0,1,2.19-5.93,14,14,0,0,1,5.19-4.82,17.16,17.16,0,0,1-5.25-4.82,14.68,14.68,0,0,1-2-5.14,81.51,81.51,0,0,1-.79-10.33,59.64,59.64,0,0,0-.61-8.65,3.5,3.5,0,0,0-1.69-1.88q-1.34-.79-6.81-.79V426.43h2.32q7,0,10.81,1.6a10.25,10.25,0,0,1,5.52,5.23q1.71,3.63,1.71,11.73,0,9.28.68,11.69a11.35,11.35,0,0,0,2.41,4.4q1.73,2,6.5,2.17Z" transform="translate(-206.67 -402.01)"/></svg>