<?xml version="1.0" encoding="utf-8"?>
<!-- Generator: Adobe Illustrator 21.0.0, SVG Export Plug-In . SVG Version: 6.00 Build 0)  -->
<svg version="1.1" id="Layer_1" xmlns="http://www.w3.org/2000/svg" xmlns:xlink="http://www.w3.org/1999/xlink" x="0px" y="0px"
	 viewBox="0 0 361.9 119.1" style="enable-background:new 0 0 361.9 119.1;" xml:space="preserve">
<style type="text/css">
	.st0{fill:#FFFFFF;stroke:#000000;stroke-miterlimit:10;}
	.st1{display:none;fill:#FFFFFF;stroke:#000000;stroke-miterlimit:10;}
</style>
<g>
	<g>
		<path class="st0" d="M82,1v58.8H69.1V27.4l-5.2,32.4h-9.2l-5.4-31.5v31.5h-13V1h19.2c0.6,3.3,1.2,7.5,1.8,12.3l2.1,15L62.8,1H82z"
			/>
		<path class="st0" d="M117.4,27.9v11.9c0,4.4-0.2,7.5-0.6,9.6s-1.3,3.9-2.7,5.7c-1.4,1.8-3.2,3.1-5.3,3.9c-2.2,0.8-4.7,1.3-7.5,1.3
			c-3.1,0-5.8-0.4-8-1.1s-3.9-1.8-5.1-3.2c-1.2-1.4-2.1-3.2-2.6-5.3c-0.5-2.1-0.8-5.1-0.8-9.3V29c0-4.5,0.5-8,1.4-10.5
			s2.6-4.6,5.1-6.1c2.4-1.5,5.6-2.3,9.4-2.3c3.2,0,5.9,0.5,8.2,1.5c2.3,1,4,2.3,5.3,3.8c1.2,1.6,2.1,3.2,2.5,4.9
			C117.2,22,117.4,24.5,117.4,27.9z M103.2,24.3c0-2.5-0.1-4-0.4-4.7c-0.3-0.6-0.8-1-1.7-1s-1.4,0.3-1.7,1c-0.3,0.6-0.4,2.2-0.4,4.7
			v21.9c0,2.3,0.1,3.8,0.4,4.5s0.8,1,1.7,1c0.8,0,1.4-0.3,1.7-0.9c0.3-0.6,0.4-2,0.4-4.1V24.3z"/>
		<path class="st0" d="M137,10.2v32.1c1.4-1.3,2.9-2.3,4.5-3s3.4-1,5.2-1c2.8,0,5.3,0.7,7.2,2.2c2,1.5,3.2,3.2,3.7,5.2
			s0.7,5.5,0.7,10.7v38.1h-16.2V65.4c0-3.2-0.2-5.3-0.5-6.2c-0.3-0.9-1-1.4-2.1-1.4c-1,0-1.7,0.5-2,1.4S137,62,137,64.8v29.6h-16.2
			V10H137V10.2z"/>
		<path class="st0" d="M169.9,28.9h-8.3v-3.2c0-3.7,0.4-6.6,1.2-8.7c0.8-2,2.5-3.8,5-5.4s5.8-2.3,9.8-2.3c4.8,0,8.4,0.9,10.9,2.6
			c2.4,1.8,3.9,3.9,4.4,6.5s0.7,7.9,0.7,15.9v24.3h-13.8l0,0c0-1.2-1.5-1.9-2.4-1.1c-0.3,0.3-0.6,0.5-1,0.7c-1.4,0.9-3,1.3-4.9,1.3
			c-2.5,0-4.8-0.7-6.8-2.2c-2.1-1.4-3.1-4.6-3.1-9.5v-4c0-3.6,0.6-6.1,1.7-7.4s3.8-2.8,8.2-4.6c4.7-1.9,7.2-3.2,7.5-3.8
			c0.3-0.7,0.5-2,0.5-4c0-2.5-0.2-4.2-0.5-4.9c-0.4-0.8-1-1.1-1.8-1.1c-1,0-1.6,0.3-1.8,1c-0.2,0.6-0.4,2.3-0.4,5l0,0
			C175,26.7,172.7,28.9,169.9,28.9z M179.5,40.6c0-2.3-3.2-2.9-3.9-0.7l0,0c-0.4,1.2-0.5,2.8-0.5,5c0,2.5,0.2,4.1,0.5,4.9
			c0.3,0.7,0.9,1.1,1.9,1.1c0.9,0,1.5-0.3,1.7-0.9c0.3-0.6,0.4-2.1,0.4-4.5v-4.9H179.5z"/>
		<path class="st0" d="M212.5,11.1l-0.2,4.6c1.1-1.8,2.4-3.2,3.9-4.1s3.3-1.4,5.2-1.4c3.8,0,6.8,1.8,9,5.5c1.2-1.8,2.5-3.2,4-4.1
			s3.2-1.4,5-1.4c2.4,0,4.4,0.6,6,1.8c1.6,1.2,2.6,2.7,3,4.5s0.7,4.6,0.7,8.6v34.4h-13.8V31.2c0-4.1-0.1-6.7-0.4-7.7S234,22,233,22
			s-1.7,0.5-2,1.5s-0.4,3.5-0.4,7.7v28.3h-13.8V32c0-4.7-0.1-7.6-0.3-8.5c-0.2-0.9-0.8-1.4-1.8-1.4c-0.6,0-1.2,0.2-1.6,0.7
			s-0.7,1.1-0.7,1.8c0,0.7-0.1,2.2-0.1,4.6v30.3h-13.8V11.1H212.5z"/>
		<path class="st0" d="M286.1,36.1h-18.4v10.5c0,2.2,0.2,3.6,0.5,4.2s0.9,0.9,1.8,0.9c1.1,0,1.8-0.4,2.2-1.3
			c0.4-0.8,0.5-2.5,0.5-4.9v-6.4h13.5v3.6c0,3-0.2,5.3-0.5,6.9c-0.4,1.6-1.2,3.3-2.5,5.1c-1.3,1.8-3,3.2-5.1,4.1
			c-2.1,0.9-4.6,1.4-7.7,1.4c-3,0-5.6-0.5-7.9-1.4s-4.1-2.1-5.4-3.7c-1.3-1.6-2.2-3.3-2.7-5.2c-0.5-1.9-0.7-4.6-0.7-8.2V27.6
			c0-4.2,0.6-7.6,1.7-10c1.1-2.4,2.9-4.3,5.4-5.6c2.5-1.3,5.4-2,8.6-2c4,0,7.3,0.8,9.9,2.4c2.6,1.6,4.4,3.6,5.4,6.2
			s1.6,6.2,1.6,10.9v6.6H286.1z M271.9,28.3v-3.5c0-2.5-0.1-4.1-0.4-4.9c-0.3-0.7-0.8-1.1-1.6-1.1c-1,0-1.6,0.3-1.8,0.9
			c-0.2,0.6-0.4,2.3-0.4,5v3.5h4.2V28.3z"/>
		<path class="st0" d="M323.1,0.4v59.1h-14.2V56c-1.4,1.5-2.8,2.6-4.3,3.3c-1.5,0.7-3.1,1.1-4.7,1.1c-2.2,0-4.1-0.6-5.7-1.8
			c-1.6-1.2-2.7-2.6-3.1-4.2c-0.5-1.6-0.7-4.2-0.7-7.7V24c0-3.7,0.2-6.4,0.7-7.9c0.5-1.6,1.5-2.9,3.1-4.1c1.6-1.2,3.6-1.8,5.9-1.8
			c1.8,0,3.4,0.3,4.8,1c1.5,0.7,2.8,1.6,4,3V0.5L323.1,0.4L323.1,0.4z M308.9,26.1c0-1.8-0.1-3-0.4-3.6c-0.3-0.6-0.9-0.9-1.7-0.9
			s-1.4,0.3-1.7,0.8s-0.4,1.8-0.4,3.7v17.7c0,2,0.1,3.3,0.4,3.9s0.8,0.9,1.6,0.9c0.9,0,1.5-0.3,1.8-1s0.5-2.4,0.5-5.1L308.9,26.1
			L308.9,26.1z"/>
		<path class="st0" d="M71.4,69.1l8.1,48.8H64.4l-0.8-6.9h-5.3l-0.9,6.9H42.1l7.2-48.7c0.2-1.6,1.6-2.7,3.3-3.9h15.9
			C69.9,66.4,71.2,67.5,71.4,69.1z M63.2,98.5c-0.7-4-1.4-11.4-2-20c0-0.4-0.6-0.4-0.6,0c-1.3,9.9-2.1,17.2-2.5,20H63.2z"/>
		<path class="st0" d="M117.2,82.3h-14v-2.9c0-2.5-0.1-4.1-0.4-4.7c-0.3-0.7-1-1-2-1c-0.9,0-1.5,0.3-2,0.9c-0.4,0.6-0.7,1.5-0.7,2.7
			c0,1.6,0.1,2.9,0.3,3.6c0.2,0.8,0.9,1.6,2,2.5s3.4,2.3,6.8,4c4.6,2.3,7.6,4.5,9,6.6s2.1,5,2.1,8.9c0,4.4-0.5,5.7-1.6,7.9
			s-2.9,3.9-5.5,5.1c-2.6,1.2-5.6,1.8-9.3,1.8c-4,0-7.4-0.6-10.3-1.9c-2.8-1.3-4.8-3-5.9-5.3s-1.6-3.6-1.6-8v-2.6h14v3.4
			c0,2.9,0.2,4.8,0.5,5.6c0.4,0.9,1,1.3,2.1,1.3s1.9-0.3,2.3-0.9s0.7-1.8,0.7-3.7c0-2.6-0.3-4.2-0.9-4.8c-0.6-0.6-3.7-2.6-9.2-5.7
			c-4.6-2.7-7.4-5.1-8.5-7.3c-1-2.2-1.5-4.8-1.5-7.8c0-4.3,0.5-7.5,1.6-9.5s2.9-3.6,5.6-4.7s5.6-1.7,9.1-1.7c3.4,0,6.3,0.5,8.8,1.4
			c2.4,0.9,4.2,2.1,5.5,3.6s2.1,2.9,2.3,4.1c0.3,1.3,0.4,3.3,0.4,5.9v3.2H117.2z"/>
		<path class="st1" d="M174.7,70.7V84c1.2-1.2,2.5-2,4-2.6c1.4-0.6,2.9-0.9,4.6-0.9c2.5,0,4.6,0.7,6.3,2s2.8,2.8,3.2,4.5
			s0.6,4.8,0.6,9.4v33.4h-14.2V95.7c0-2.8-0.1-4.6-0.4-5.4s-0.9-1.2-1.8-1.2s-1.5,0.4-1.8,1.2c-0.3,0.8-0.5,2.5-0.5,4.9v34.6h-14.2
			V70.7L174.7,70.7L174.7,70.7z"/>
		<path class="st0" d="M186.4,65.8l-0.5,13.4c0,0.3,0.4,0.4,0.5,0.1c1.8-5.1,4.6-7.2,10.7-7.6v18.7c-4.3,1.5-6.4,1.9-7.7,2.7
			c-1.3,0.8-2.2,1.9-2.5,3.3s-0.5,4.7-0.5,9.9l-0.7,12l-14.3,0.3l0.7-52.4L186.4,65.8z"/>
		<path class="st0" d="M220.5,89.3h-13.3v-3.2c0-3.7,0.4-6.6,1.2-8.7c0.8-2,2.5-3.8,5-5.4s5.8-2.3,9.8-2.3c4.8,0,8.4,0.9,10.9,2.6
			s3.9,3.9,4.4,6.5s0.7,7.9,0.7,15.9V117h-13.8v-4.3c-0.9,1.7-2,3-3.4,3.9s-3,1.3-4.9,1.3c-2.5,0-4.8-0.7-6.8-2.2
			c-2.1-1.4-3.1-2.6-3.1-7.5v-4c0-3.6,0.6-6.1,1.7-7.4s3.8-2.8,8.2-4.6c4.7-1.9,7.2-3.2,7.5-3.8s0.5-2,0.5-4c0-2.5-0.2-4.2-0.5-4.9
			s-1-1.1-1.8-1.1c-1,0-1.6,0.3-1.8,1c-0.2,0.6-0.4,2.3-0.4,5v4.9H220.5z M225,95.9c-2.3,1.7-3.6,3.2-4,4.3c-0.4,1.2-0.5,2.8-0.5,5
			c0,2.5,0.2,2.1,0.5,2.9c0.3,0.7,0.9,1.1,1.9,1.1c0.9,0,1.5-0.3,1.7-0.9c0.3-0.6,0.4-0.1,0.4-2.5V95.9z"/>
		<path class="st0" d="M271.8,72.2v5.3c-7.6,0-9.3,0.2-9.8,0.7c-0.5,0.4-0.8,1.7-0.8,3.7v2.4h7.9v7.5c0,2.5-2,4.5-4.5,4.5h-3.5
			l0.1,22.2h-11.5l-0.1-22.2h-5.1v-7.5c0-2.5,2-4.5,4.5-4.5h0.7c0-5,0.1-8.3,0.3-10c0.2-1.7,0.7-3.2,1.6-4.5c0.8-1.3,2-2.3,3.5-3
			c1.5-0.7,3.8-1,7-1h3.5C269,65.8,271.8,68.7,271.8,72.2z"/>
	</g>
	<g>
		<path class="st0" d="M0.5,71.7V61.2c3.2,0,5.6-1,7.2-2.8c1.6-1.9,2.4-6,2.4-12.5c0-4.9,0.2-8.6,0.5-11c0.4-2.4,1.2-4.4,2.6-6
			c1.4-1.6,3.2-2.8,5.4-3.5s5.4-1.1,9.4-1.1h2.3v10.5c-4.2,0-6.8,0.4-7.6,1.3s-1.3,2.6-1.3,5.1c-0.2,7-0.4,11.6-0.7,13.7
			s-0.9,4.1-1.9,6s-2.9,3.7-5.6,5.5c2.6,1.6,4.5,3.5,5.7,5.6c1.2,2.2,1.9,5.3,2.1,9.5l0.7,12.7c0.3,1.2,0.9,2.2,1.9,2.8
			c1,0.6,3.3,0.9,6.8,0.9v10.5h-2.3c-4.7,0-8.3-0.5-10.8-1.6s-4.4-2.8-5.5-5.2c-1.1-2.4-1.7-6.3-1.7-11.7c0-6-0.2-9.8-0.6-11.4
			c-0.4-1.7-1.2-3.2-2.4-4.6C5.9,72.5,3.7,71.8,0.5,71.7z"/>
		<path class="st0" d="M302.3,75.9v9.6h-9v-9.6H302.3z M301.8,93.9v4.3c0,2.2-0.3,4.1-0.8,5.5s-1.4,2.6-2.7,3.6
			c-1.3,1-2.8,1.7-4.4,2v-3.4c1.2-0.7,1.8-1.6,2-2.7h-2v-9.3H301.8z"/>
		<path class="st0" d="M361.3,71.7c-3.2,0-5.6,1-7.2,2.8c-1.6,1.9-2.4,6-2.4,12.4c0,5-0.2,8.6-0.5,11c-0.4,2.4-1.2,4.4-2.6,6
			c-1.4,1.6-3.2,2.8-5.4,3.5s-5.4,1.1-9.4,1.1h-2.3V98c4.1,0,6.5-0.4,7.5-1.3c0.9-0.8,1.4-2.6,1.5-5.2c0.2-7.5,0.4-12.3,0.8-14.4
			c0.4-2.1,1.1-4.1,2.2-5.9c1.1-1.8,2.8-3.4,5.2-4.8c-2.5-1.6-4.3-3.2-5.3-4.8c-1-1.6-1.7-3.3-2-5.1c-0.4-1.9-0.6-5.3-0.8-10.3
			s-0.4-7.9-0.6-8.6c-0.2-0.7-0.8-1.4-1.7-1.9s-3.2-0.8-6.8-0.8V24.4h2.3c4.7,0,8.3,0.5,10.8,1.6s4.4,2.8,5.5,5.2
			c1.1,2.4,1.7,6.3,1.7,11.7c0,6.2,0.2,10.1,0.7,11.7s1.3,3.1,2.4,4.4c1.2,1.3,3.3,2.1,6.5,2.2v10.5H361.3z"/>
	</g>
</g>
</svg>
